<svg width="50" height="50" viewBox="0 0 50 50" fill="none" xmlns="http://www.w3.org/2000/svg">
<path d="M25.0001 8.78988C33.9288 8.78988 41.1929 16.0398 41.1929 24.951C41.1929 25.2116 41.1867 25.4755 41.1742 25.7356L42.643 25.8057C42.6567 25.5225 42.6635 25.235 42.6635 24.9511C42.6635 15.2305 34.7398 7.32227 25.0001 7.32227C24.6717 7.32227 24.339 7.33146 24.0115 7.34947L24.0926 8.81493C24.3932 8.79829 24.6985 8.78988 25.0001 8.78988Z" fill="#41BAD8"/>
<path d="M9.05078 22.1423L7.60234 21.8889C7.51372 22.3936 7.44646 22.909 7.40234 23.4205L8.86754 23.5463C8.90793 23.0773 8.9696 22.6049 9.05078 22.1423Z" fill="#41BAD8"/>
<path d="M42.7035 27.0946C39.9039 29.5871 37.0984 31.6997 33.2264 32.1479C29.0284 32.6338 24.7656 31.1477 21.7785 28.1665C18.7955 25.1893 17.2949 20.9273 17.7893 16.7411C18.2463 12.8723 20.3518 10.0802 22.8525 7.28247C19.9261 8.05155 17.1337 8.8676 14.641 10.6713C11.3859 13.0266 8.98843 16.4811 7.94275 20.3572L9.36275 20.7388C10.6603 15.9291 14.1221 12.0116 18.6411 10.0844C14.7954 16.0946 15.6954 24.1767 20.7403 29.2028C25.7864 34.2301 33.8683 35.1414 39.898 31.2967C36.837 38.4645 28.7859 42.4892 21.2001 40.6613C14.0231 38.932 8.80726 32.3185 8.80726 24.9512H7.33667C7.33667 34.5496 15.3869 42.5807 25.0001 42.5799C29.7187 42.5795 34.3202 40.6464 37.6231 37.285C40.4605 34.3974 41.6978 30.9063 42.7035 27.0946Z" fill="#41BAD8"/>
<path d="M44.1177 24.2173H50V25.685H44.1177V24.2173Z" fill="#41BAD8"/>
<path d="M37.9932 10.9436L42.152 6.79292L43.1918 7.83066L39.0329 11.9813L37.9932 10.9436Z" fill="#41BAD8"/>
<path d="M37.99 38.8062L39.0298 37.7684L43.1886 41.9191L42.1488 42.9568L37.99 38.8062Z" fill="#41BAD8"/>
<path d="M24.2646 0H25.7352V5.87084H24.2646V0Z" fill="#41BAD8"/>
<path d="M24.2646 44.1292H25.7352V50H24.2646V44.1292Z" fill="#41BAD8"/>
<path d="M5.93141 42.6125H4.46082V44.0803H2.99023V45.548H4.46082V47.0157H5.93141V45.548H7.402V44.0803H5.93141V42.6125Z" fill="#41BAD8"/>
<path d="M8.87244 7.33843H10.343V5.87072H11.8136V4.40301H10.343V2.9353H8.87244V4.40301H7.40186V5.87072H8.87244V7.33843Z" fill="#41BAD8"/>
<path d="M4.41177 25.6849V24.2172H2.94118V22.7495H1.47059V24.2172H0V25.6849H1.47059V27.1526H2.94118V25.6849H4.41177Z" fill="#41BAD8"/>
<path d="M7.33667 39.6282H8.80726V41.0959H7.33667V39.6282Z" fill="#41BAD8"/>
<path d="M2.99023 8.8457H4.46082V10.3134H2.99023V8.8457Z" fill="#41BAD8"/>
</svg>
