<svg width="30" height="30" viewBox="0 0 30 30" fill="none" xmlns="http://www.w3.org/2000/svg">
<path d="M17.7485 14.9999L29.4299 3.31816C30.1901 2.55831 30.1901 1.32974 29.4299 0.569888C28.6701 -0.189963 27.4415 -0.189963 26.6816 0.569888L14.9999 12.2516L3.31843 0.569888C2.55823 -0.189963 1.33001 -0.189963 0.570155 0.569888C-0.190052 1.32974 -0.190052 2.55831 0.570155 3.31816L12.2516 14.9999L0.570155 26.6817C-0.190052 27.4415 -0.190052 28.6701 0.570155 29.43C0.948835 29.809 1.44674 29.9994 1.94429 29.9994C2.44185 29.9994 2.9394 29.809 3.31843 29.43L14.9999 17.7482L26.6816 29.43C27.0607 29.809 27.5582 29.9994 28.0558 29.9994C28.5533 29.9994 29.0509 29.809 29.4299 29.43C30.1901 28.6701 30.1901 27.4415 29.4299 26.6817L17.7485 14.9999Z" fill="#41BAD8"/>
</svg>
